<?xml version="1.0" encoding="UTF-8" standalone="no"?>
<!-- Created with Serif DrawPlus 11, 0, 3, 23 (Feb 25, 14:12:55) (http://www.serif.com) -->
<svg version="1.1" xmlns="http://www.w3.org/2000/svg" xmlns:xlink="http://www.w3.org/1999/xlink" width="298.307" height="207.245">
	<g id="dp_group001" transform="matrix(1,0,0,1,-455.368,-686.857)">
		<g id="dp_group002">
			<path id="dp_path003" fill="none" fill-rule="evenodd" stroke="#9c0ad1" stroke-width="1.33333" d="M 730.316,688.015 L 457.861,844.851 L 730.316,844.851 Z "/>
			<path id="dp_path004" fill="#330bd2" fill-rule="evenodd" stroke="none" stroke-width="1.33333" d="M 730.369,825.648 L 710.639,825.648 L 710.639,844.853 L 730.369,844.853 Z "/>
			<path id="dp_path005" fill="#330bd2" fill-rule="evenodd" stroke="none" stroke-width="1.33333" d="M 730.316,726.283 C 716.513,726.283 703.732,719.155 696.695,707.528 L 730.316,688.015 Z "/>
			<path id="dp_path006" fill="#330bd2" fill-rule="evenodd" stroke="none" stroke-width="1.33333" d="M 505.851,844.852 C 505.851,836.431 503.535,828.164 499.147,820.92 L 457.861,844.852 Z "/>
		</g>
		<text id="dp_text001" transform="matrix(1.00127,0,0,1,742.09,781.726)" xml:space="preserve" fill="black" font-family="Arial" font-size="22" font-weight="400" font-style="italic" x="0" y="0">x </text>
		<text id="dp_text002" transform="matrix(0.996454,0,0,1,582.354,754.868)" xml:space="preserve" fill="black" font-family="Arial" font-size="22" font-weight="400" x="0" y="0">1</text>
		<text id="dp_text003" transform="matrix(0.996453,0,0,1,582.396,754.868)" xml:space="preserve" fill="black" font-family="Arial" font-size="22" font-weight="400" font-style="italic" x="11.9867" y="0"> </text>
		<path id="dp_path010" fill="black" fill-rule="evenodd" d="M 523.997,819.992 C 523.903,819.615 523.779,819.24 523.628,818.873 C 523.476,818.505 523.277,818.179 523.032,817.895 C 522.787,817.611 522.497,817.379 522.167,817.2 C 521.835,817.02 521.443,816.929 520.988,816.929 C 520.535,816.929 520.1,817.02 519.683,817.2 C 519.267,817.379 518.869,817.611 518.491,817.895 C 518.113,818.179 517.753,818.505 517.413,818.873 C 517.072,819.24 516.76,819.615 516.476,819.992 C 515.625,821.109 514.944,822.268 514.433,823.469 C 513.923,824.671 513.515,825.884 513.212,827.113 C 512.891,828.344 512.688,829.559 512.603,830.759 C 512.517,831.96 512.616,833.119 512.9,834.235 C 512.995,834.613 513.123,834.981 513.284,835.339 C 513.444,835.699 513.643,836.02 513.88,836.304 C 514.116,836.588 514.4,836.82 514.731,836.999 C 515.061,837.179 515.455,837.269 515.908,837.269 C 516.363,837.269 516.797,837.179 517.215,836.999 C 517.631,836.82 518.032,836.588 518.42,836.304 C 518.808,836.02 519.172,835.699 519.513,835.339 C 519.853,834.981 520.165,834.613 520.449,834.235 C 521.281,833.119 521.953,831.96 522.464,830.759 C 522.975,829.559 523.392,828.344 523.713,827.113 C 524.016,825.884 524.209,824.671 524.295,823.469 C 524.38,822.268 524.281,821.109 523.997,819.992 Z M 522.408,820.217 C 522.503,821.241 522.445,822.293 522.237,823.375 C 522.029,824.456 521.793,825.555 521.528,826.673 L 515.596,826.673 C 515.861,825.555 516.164,824.456 516.504,823.375 C 516.845,822.293 517.319,821.241 517.924,820.217 C 518.359,819.499 518.808,818.872 519.272,818.341 C 519.735,817.809 520.26,817.545 520.847,817.545 C 521.131,817.545 521.367,817.616 521.556,817.757 C 521.745,817.9 521.897,818.093 522.011,818.341 C 522.124,818.588 522.209,818.872 522.265,819.193 C 522.323,819.517 522.369,819.857 522.408,820.217 Z M 521.301,827.549 C 521.036,828.665 520.733,829.757 520.392,830.824 C 520.052,831.893 519.579,832.948 518.973,833.989 C 518.557,834.705 518.113,835.329 517.64,835.86 C 517.167,836.389 516.647,836.655 516.079,836.655 C 515.795,836.655 515.553,836.583 515.355,836.441 C 515.156,836.299 515,836.105 514.887,835.86 C 514.773,835.613 514.684,835.329 514.617,835.008 C 514.551,834.687 514.508,834.348 514.489,833.989 C 514.413,832.948 514.476,831.893 514.675,830.824 C 514.873,829.757 515.104,828.665 515.369,827.549 Z "/>
		<g id="dp_group011">
			<text id="dp_text004" transform="matrix(1.00118,1.87007e-015,-1.86786e-015,1,583.506,884.566)" xml:space="preserve" fill="black" font-family="Arial" font-size="22" font-weight="400" x="0" y="0">1 </text>
			<text id="dp_text005" transform="matrix(1.00169,1.87102e-015,-1.86786e-015,1,583.476,884.566)" xml:space="preserve" fill="black" font-family="Arial" font-size="22" font-weight="400" x="18.0373" y="0">−</text>
			<text id="dp_text006" transform="matrix(1,1.86786e-015,-1.86786e-015,1,583.506,884.566)" xml:space="preserve" fill="black" font-family="Arial" font-size="22" font-weight="400" x="30.66" y="0"> </text>
			<text id="dp_text007" transform="matrix(1.00127,1.87023e-015,-1.86786e-015,1,583.46,884.566)" xml:space="preserve" fill="black" font-family="Arial" font-size="22" font-weight="400" font-style="italic" x="36.6533" y="0">x </text>
			<text id="dp_text008" transform="matrix(1.00171,2.48274e-015,-2.534e-015,1,633.821,875.126)" xml:space="preserve" fill="black" font-family="Arial" font-size="17" font-weight="400" x="0" y="0">2</text>
			<text id="dp_text009" transform="matrix(1,2.47849e-015,-2.534e-015,1,633.821,875.126)" xml:space="preserve" fill="black" font-family="Arial" font-size="17" font-weight="400" font-style="italic" x="9.344" y="0"> </text>
			<path id="dp_path018" fill="black" fill-rule="evenodd" d="M 582.353,857.107 L 646.715,857.101 L 646.72,858.497 L 583.507,858.496 L 577.847,894.101 L 568.428,874.712 L 564.663,876.44 L 564.012,875.208 L 569.767,872.352 L 577.419,887.96 Z "/>
		</g>
	</g>
</svg>